<svg xmlns="http://www.w3.org/2000/svg" version="1.0" width="300.000000pt" height="164.000000pt" viewBox="0 0 300.000000 164.000000" preserveAspectRatio="xMidYMid meet">

<g transform="translate(0.000000,164.000000) scale(0.100000,-0.100000)" fill="#ff6600" stroke="none">
<path d="M559 1212 c-30 -27 -32 -34 -46 -152 -32 -267 0 -642 69 -822 9 -25 60 -58 90 -58 23 0 184 82 308 156 190 114 475 327 500 374 21 39 12 81 -24 115 -117 110 -447 287 -702 376 -61 22 -123 39 -138 39 -14 0 -40 -12 -57 -28z m509 -187 c24 -20 32 -39 46 -108 23 -115 30 -256 18 -357 -9 -76 -13 -87 -41 -112 -17 -16 -42 -28 -55 -28 -75 0 -418 171 -468 233 -20 25 -23 78 -8 107 20 38 210 173 353 250 84 46 115 49 155 15z"/>
<path d="M770 871 c-13 -26 -13 -204 1 -274 20 -97 37 -97 189 4 119 79 154 113 139 136 -16 26 -88 70 -187 114 -98 44 -127 48 -142 20z"/>
<path d="M1640 840 c-22 -5 -26 -15 -42 -95 -10 -50 -16 -95 -14 -102 10 -24 35 -1 41 38 6 34 10 39 35 39 15 0 33 6 39 14 10 12 7 15 -21 18 -28 3 -33 6 -30 28 3 29 16 38 46 33 21 -4 45 12 34 23 -8 8 -63 10 -88 4z"/>
<path d="M2177 843 c-16 -15 -6 -34 15 -31 29 4 38 38 10 38 -10 0 -22 -3 -25 -7z"/>
<path d="M2246 778 c-29 -135 -29 -135 -11 -142 21 -8 50 13 37 26 -8 8 0 67 23 166 4 17 1 22 -14 22 -15 0 -22 -13 -35 -72z"/>
<path d="M2364 839 c-3 -5 6 -9 21 -9 21 0 25 -4 20 -22 -18 -78 -33 -163 -29 -167 9 -9 15 10 31 97 16 90 16 91 47 95 28 3 27 4 -9 6 -22 1 -48 4 -57 6 -10 2 -20 -1 -24 -6z"/>
<path d="M1746 758 c-9 -12 -16 -42 -16 -66 0 -35 4 -44 22 -51 38 -14 71 2 91 42 28 56 13 91 -40 95 -33 2 -44 -1 -57 -20z m68 -16 c11 -18 -10 -67 -30 -67 -15 0 -18 6 -15 30 1 17 5 33 8 38 6 10 31 9 37 -1z"/>
<path d="M1903 774 c-7 -3 -13 -19 -13 -35 0 -22 7 -32 25 -41 35 -16 31 -30 -7 -26 -40 4 -49 -18 -13 -32 38 -14 79 7 83 42 3 22 -3 30 -30 45 l-33 18 38 3 c24 2 37 8 34 15 -4 13 -63 20 -84 11z"/>
<path d="M2032 768 c-20 -20 -14 -46 16 -65 15 -9 29 -19 32 -21 12 -9 -26 -20 -41 -12 -11 7 -21 5 -28 -4 -16 -20 34 -36 71 -24 48 16 46 68 -3 83 -29 10 -23 23 14 27 17 2 32 8 32 13 0 15 -78 18 -93 3z"/>
<path d="M2165 768 c-2 -7 -9 -37 -15 -67 -8 -43 -8 -56 2 -63 22 -14 33 -3 35 36 1 20 7 52 12 71 8 31 7 35 -10 35 -11 0 -21 -6 -24 -12z"/>
<path d="M2481 730 c-15 -69 -14 -78 9 -90 14 -7 20 -7 20 0 0 5 -5 10 -11 10 -12 0 -7 77 6 113 4 9 3 17 -3 17 -6 0 -15 -23 -21 -50z"/>
<path d="M2576 769 c-8 -26 -26 -108 -26 -118 0 -6 4 -11 8 -11 10 0 36 130 28 138 -3 3 -7 -1 -10 -9z"/>
<path d="M2631 714 c-6 -37 -10 -69 -7 -72 6 -6 10 5 25 70 13 56 14 68 3 68 -5 0 -14 -30 -21 -66z"/>
<path d="M2709 771 c10 -7 12 -21 6 -56 -3 -26 -9 -54 -12 -61 -3 -9 2 -14 12 -14 9 0 13 4 10 10 -3 5 -1 28 5 50 13 48 6 80 -18 80 -14 0 -14 -2 -3 -9z"/>
<path d="M2791 754 c-29 -36 -25 -91 7 -112 14 -9 22 -10 22 -3 0 6 -6 11 -14 11 -23 0 -31 41 -11 53 13 7 14 11 5 17 -20 12 6 50 35 50 33 0 41 -17 18 -42 -18 -21 -18 -21 5 -9 35 19 26 55 -14 59 -25 2 -37 -3 -53 -24z"/>
<path d="M2846 655 c-11 -8 -15 -15 -9 -15 6 0 16 7 23 15 16 19 11 19 -14 0z"/>
</g>
</svg>