<?xml version="1.0" standalone="no"?>
<!DOCTYPE svg PUBLIC "-//W3C//DTD SVG 20010904//EN"
 "http://www.w3.org/TR/2001/REC-SVG-20010904/DTD/svg10.dtd">
<svg version="1.0" xmlns="http://www.w3.org/2000/svg"
 width="300.000000pt" height="98.000000pt" viewBox="0 0 300.000000 98.000000"
 preserveAspectRatio="xMidYMid meet">

<g transform="translate(0.000000,98.000000) scale(0.100000,-0.100000)"
fill="#ff6600" stroke="none">
<path d="M294 877 c-98 -67 -204 -256 -222 -395 -17 -135 19 -290 85 -363 47
-52 89 -64 163 -50 66 13 341 111 412 147 98 49 138 115 125 201 -16 97 -144
294 -255 393 -120 107 -219 128 -308 67z m381 -247 c0 -51 -2 -55 -24 -55 -23
0 -34 11 -45 48 -5 15 -19 17 -116 17 l-110 0 0 -65 0 -65 61 0 c52 0 62 3 66
20 4 13 14 20 30 20 23 0 24 -2 21 -72 -2 -60 -6 -73 -20 -76 -11 -2 -22 6
-29 22 -11 24 -18 26 -71 26 l-58 0 0 -59 c0 -57 1 -59 31 -70 21 -7 30 -16
27 -28 -3 -16 -15 -18 -93 -18 -84 0 -90 1 -93 21 -2 16 4 23 22 28 l26 6 0
150 0 150 -25 10 c-15 6 -25 17 -25 30 0 20 4 20 213 18 l212 -3 0 -55z"/>
<path d="M1830 650 c0 -11 7 -20 15 -20 8 0 15 9 15 20 0 11 -7 20 -15 20 -8
0 -15 -9 -15 -20z"/>
<path d="M1920 500 c0 -144 2 -170 15 -170 13 0 15 26 15 170 0 144 -2 170
-15 170 -13 0 -15 -26 -15 -170z"/>
<path d="M1020 495 c0 -140 2 -165 15 -165 12 0 15 15 15 75 l0 75 65 0 c51 0
65 3 65 15 0 12 -14 15 -65 15 l-65 0 0 55 0 55 70 0 c63 0 70 2 70 20 0 18
-7 20 -85 20 l-85 0 0 -165z"/>
<path d="M2100 640 c0 -17 7 -20 45 -20 l45 0 0 -145 c0 -122 2 -145 15 -145
13 0 15 23 15 145 l0 145 45 0 c38 0 45 3 45 20 0 19 -7 20 -105 20 -98 0
-105 -1 -105 -20z"/>
<path d="M1270 577 c-35 -18 -50 -53 -50 -122 0 -43 6 -70 20 -93 19 -30 24
-33 62 -30 59 4 79 35 79 119 0 76 -13 112 -48 128 -30 14 -32 14 -63 -2z m70
-46 c5 -11 10 -45 10 -76 0 -68 -13 -95 -45 -95 -35 0 -55 35 -55 98 0 69 13
92 50 92 19 0 33 -7 40 -19z"/>
<path d="M1472 580 c-28 -12 -46 -51 -38 -84 5 -19 21 -33 54 -49 41 -19 47
-26 47 -52 0 -27 -3 -30 -30 -30 -22 0 -33 6 -40 23 -13 29 -35 28 -35 -1 0
-33 30 -57 72 -57 43 0 69 26 70 69 1 37 -23 66 -67 81 -35 12 -48 30 -39 55
9 23 61 19 69 -5 8 -26 35 -26 35 -1 0 20 -44 61 -64 60 -6 0 -21 -4 -34 -9z"/>
<path d="M1662 580 c-28 -12 -46 -51 -38 -84 5 -19 21 -33 54 -49 41 -19 47
-26 47 -52 0 -27 -3 -30 -30 -30 -22 0 -33 6 -40 23 -13 29 -35 28 -35 -1 0
-33 30 -57 72 -57 43 0 69 26 70 69 1 37 -23 66 -67 81 -35 12 -48 30 -39 55
9 23 61 19 69 -5 8 -26 35 -26 35 -1 0 20 -44 61 -64 60 -6 0 -21 -4 -34 -9z"/>
<path d="M2590 573 c-17 -12 -25 -13 -28 -5 -2 7 -10 12 -18 12 -11 0 -14 -24
-14 -125 0 -104 2 -125 15 -125 12 0 15 16 15 83 0 100 14 132 55 132 l30 0 3
-107 c2 -87 6 -108 17 -108 12 0 15 21 15 114 0 107 -1 116 -22 130 -28 20
-38 20 -68 -1z"/>
<path d="M2793 580 c-66 -27 -72 -219 -8 -244 52 -19 115 11 115 56 0 25 -23
22 -35 -4 -15 -34 -64 -31 -84 3 -25 44 -10 59 59 59 l60 0 0 44 c0 69 -50
110 -107 86z m65 -42 c7 -7 12 -22 12 -35 0 -21 -4 -23 -50 -23 -53 0 -57 4
-38 45 12 27 54 35 76 13z"/>
<path d="M1830 455 c0 -104 2 -125 15 -125 13 0 15 21 15 125 0 104 -2 125
-15 125 -13 0 -15 -21 -15 -125z"/>
<path d="M2320 477 c0 -77 4 -108 16 -125 18 -26 60 -29 86 -6 16 16 18 16 24
0 16 -42 24 -6 24 109 0 104 -2 125 -15 125 -12 0 -15 -17 -15 -93 0 -78 -3
-97 -18 -110 -10 -10 -25 -17 -33 -17 -32 0 -39 23 -39 122 0 80 -3 98 -15 98
-12 0 -15 -18 -15 -103z"/>
</g>
</svg>
